<svg width="32" height="32" viewBox="0 0 32 32" fill="none" xmlns="http://www.w3.org/2000/svg">
  <rect width="32" height="32" rx="8" fill="url(#gradient)"/>
  <!-- Gamepad icon -->
  <path d="M8 10h16c1.1 0 2 .9 2 2v8c0 1.1-.9 2-2 2H8c-1.1 0-2-.9-2-2v-8c0-1.1.9-2 2-2z" fill="white"/>
  <circle cx="10" cy="16" r="1.5" fill="url(#gradient)"/>
  <circle cx="22" cy="16" r="1.5" fill="url(#gradient)"/>
  <rect x="18" y="12" width="2" height="2" rx="1" fill="url(#gradient)"/>
  <rect x="12" y="12" width="2" height="2" rx="1" fill="url(#gradient)"/>
  <!-- Encryption indicator -->
  <circle cx="26" cy="6" r="2" fill="#00ff88"/>
  <path d="M25 6h2M26 5v2" stroke="white" stroke-width="0.5"/>
  <defs>
    <linearGradient id="gradient" x1="0" y1="0" x2="32" y2="32">
      <stop offset="0%" stop-color="#6366f1"/>
      <stop offset="100%" stop-color="#8b5cf6"/>
    </linearGradient>
  </defs>
</svg>
